<svg xmlns="http://www.w3.org/2000/svg"  viewBox="0 0 40 40" width="40px" height="40px"><rect width="1.58" height="5.152" x="28.946" y="9.697" fill="#8bb7f0"/><path fill="#8bb7f0" d="M22.849,30.658c4.554-0.505,8.124-2.138,10.462-3.565l-0.832-1.308 c-2.19,1.329-5.523,2.869-9.788,3.343c-0.026-0.232-0.047-0.458-0.063-0.69c-0.216-2.689-0.216-5.425,0-8.119l0.063-0.835H17.99 c0.337-2.617,0.827-5.239,1.458-7.805c0.679-2.756,1.522-5.497,2.532-8.165c0.032-0.088,0.063-0.17,0.1-0.258H3.937 c-1.453,0-2.633,1.154-2.633,2.576v28.807c0,1.159,0.964,2.102,2.148,2.102h20.518c-0.026-0.088-0.042-0.17-0.068-0.258 C23.444,34.563,23.092,32.616,22.849,30.658z"/><path fill="#4e7ab5" d="M23.971,36.742c-0.026-0.088-0.042-0.17-0.068-0.258H3.453c-1.037,0-1.885-0.829-1.885-1.844V5.833 c0-1.278,1.064-2.318,2.369-2.318h18.043c0.032-0.088,0.063-0.17,0.1-0.258c0.032-0.088,0.063-0.17,0.1-0.258H3.937 C2.342,3,1.042,4.272,1.042,5.833v28.807C1.042,35.939,2.126,37,3.453,37h20.581C24.013,36.912,23.992,36.83,23.971,36.742z"/><path fill="#788b9c" d="M38.95,5.359v29.281c0,1.298-1.085,2.359-2.411,2.359H24.034c-0.021-0.088-0.042-0.17-0.063-0.258 h12.568c1.185,0,2.148-0.943,2.148-2.102V5.359c0-1.159-0.964-2.102-2.148-2.102H22.081c0.032-0.088,0.063-0.17,0.1-0.258h14.358 C37.865,3,38.95,4.061,38.95,5.359z"/><path fill="#788b9c" d="M38.687,5.359v29.281c0,1.159-0.964,2.102-2.148,2.102H23.971c-0.026-0.088-0.042-0.17-0.068-0.258 h12.636c1.037,0,1.885-0.829,1.885-1.844V5.359c0-1.015-0.848-1.844-1.885-1.844H21.981c0.032-0.088,0.063-0.17,0.1-0.258h14.458 C37.723,3.258,38.687,4.2,38.687,5.359z"/><path fill="#e1ebf2" d="M36.538,3.515H21.981c-1.011,2.668-1.853,5.409-2.532,8.165c-0.632,2.565-1.121,5.188-1.458,7.805 h4.702l-0.063,0.835c-0.216,2.694-0.216,5.43,0,8.119c0.016,0.232,0.037,0.458,0.063,0.69c4.265-0.474,7.597-2.014,9.788-3.343 l0.832,1.308c-2.338,1.427-5.907,3.06-10.462,3.565c0.242,1.958,0.595,3.905,1.053,5.826h12.636c1.037,0,1.885-0.829,1.885-1.844 V5.359C38.423,4.345,37.576,3.515,36.538,3.515z M30.526,14.848h-1.58V9.697h1.58V14.848z"/><path fill="#4e7ab5" d="M21.799,4c-0.931,2.515-1.713,5.091-2.351,7.68c-0.632,2.565-1.121,5.188-1.458,7.805h4.702 l-0.063,0.835c-0.216,2.694-0.216,5.43,0,8.119c0.016,0.232,0.037,0.458,0.063,0.69c0.042,0.51,0.1,1.02,0.158,1.53 c0.242,1.958,0.595,3.905,1.053,5.826c0.026,0.088,0.042,0.17,0.068,0.258c0.021,0.088,0.042,0.17,0.063,0.258h-1.627 c-0.021-0.082-0.042-0.17-0.063-0.258c-0.021-0.082-0.037-0.17-0.058-0.258c-0.442-1.875-0.779-3.781-1.011-5.698 c-0.063-0.51-0.121-1.025-0.163-1.54c-0.026-0.227-0.047-0.458-0.063-0.685c-0.195-2.499-0.216-5.023-0.058-7.532h-4.775l0.1-0.86 c0.347-2.967,0.885-5.945,1.595-8.85c0.642-2.632,1.443-5.249,2.385-7.805c0.032-0.088,0.063-0.175,0.1-0.258 C20.422,3.17,20.459,3.082,20.491,3h1.69c-0.037,0.088-0.068,0.17-0.1,0.258c-0.037,0.088-0.068,0.17-0.1,0.258 C21.92,3.676,21.859,3.838,21.799,4"/><path fill="#4e7ab5" d="M33.311,27.094c-2.338,1.427-5.907,3.06-10.462,3.565c-0.511,0.062-1.037,0.103-1.574,0.129 c-0.416,0.021-0.842,0.031-1.274,0.031h-0.279c-5.823-0.062-10.304-2.061-13.041-3.725l0.832-1.308 c2.569,1.556,6.771,3.431,12.231,3.488c0.463,0.005,0.921,0,1.369-0.026c0.537-0.021,1.069-0.062,1.58-0.119 c4.265-0.474,7.597-2.014,9.788-3.343L33.311,27.094z"/><rect width="1.58" height="5.152" x="9.466" y="9.697" fill="#4e7ab5"/><rect width="1.58" height="5.152" x="28.946" y="9.697" fill="#4e7ab5"/><path fill="none" stroke="#4e7ab5" stroke-miterlimit="10" d="M36.521,36.5H3.479c-1.093,0-1.979-0.886-1.979-1.979V5.479	C1.5,4.386,2.386,3.5,3.479,3.5c6.167,0,12.334,0,18.502,0c4.847,0,9.693,0,14.54,0c0.132,0,0.833,0.013,1.399,0.58	c0.358,0.358,0.58,0.853,0.58,1.399v29.042C38.5,35.614,37.614,36.5,36.521,36.5z"/><path fill="#66798f" d="M39,5.48v29.04c0,1.37-1.11,2.48-2.48,2.48H24.03c-0.02-0.09-0.04-0.17-0.06-0.26	c-0.03-0.09-0.04-0.17-0.07-0.26c-0.04-0.16-0.08-0.32-0.11-0.48h12.73c0.82,0,1.48-0.66,1.48-1.48V5.48c0-0.4-0.15-0.77-0.43-1.05	C37.17,4.03,36.66,4,36.52,4H21.8c0.06-0.16,0.12-0.32,0.18-0.48c0.03-0.09,0.06-0.17,0.1-0.26c0.03-0.09,0.06-0.17,0.1-0.26h14.34	c0.31,0,1.1,0.07,1.75,0.73C38.74,4.19,39,4.82,39,5.48z"/></svg>