<svg version="1.1" id="Layer_1" xmlns="http://www.w3.org/2000/svg" xmlns:xlink="http://www.w3.org/1999/xlink" x="0px" y="0px"
	 width="100%" viewBox="0 0 900 360" enable-background="new 0 0 900 360" xml:space="preserve">
<path fill="#173556" opacity="1.000000" stroke="none" 
	d="
M188.531342,0.999998 
	C190.341034,1.664384 191.628998,2.755664 193.030960,2.929962 
	C219.618484,6.235415 245.579376,12.098069 270.777008,21.314720 
	C275.528198,23.052591 277.212738,25.642073 277.136597,30.841923 
	C276.814789,52.827847 277.049011,74.821465 276.926483,96.811409 
	C276.913757,99.089485 276.111694,103.204269 275.282043,103.307701 
	C272.216736,103.689842 268.503906,103.607704 265.900208,102.151833 
	C254.043823,95.522339 242.827240,87.683640 230.730942,81.563866 
	C213.750443,72.973045 195.553085,67.824524 176.506271,65.925865 
	C158.517029,64.132645 140.718124,63.992210 123.378998,70.269882 
	C115.070824,73.277863 107.756538,77.641670 102.087143,84.498299 
	C91.028008,97.873322 97.186111,117.856819 114.243683,125.005203 
	C131.069077,132.056290 148.890427,135.183060 166.549789,138.986160 
	C191.734406,144.409882 216.794601,150.362259 239.934174,162.083038 
	C258.486359,171.480179 274.468231,183.939621 283.260742,203.634506 
	C287.899384,214.024948 290.575531,224.899536 291.042511,236.345886 
	C291.647156,251.167419 291.011017,265.773102 286.157654,279.995056 
	C278.894989,301.277283 265.142395,317.518494 247.072601,330.271149 
	C224.323090,346.326477 198.665573,354.707336 171.208206,358.101868 
	C167.512558,358.558746 163.879227,359.519562 160.108521,360.623535 
	C140.645767,361.000000 121.291542,361.000000 101.357895,360.622009 
	C99.744942,359.843109 98.732719,359.163239 97.674713,359.082336 
	C75.059570,357.353577 53.123024,352.375824 31.625441,345.322906 
	C21.389772,341.964813 11.206826,338.446014 1.000001,335.000000 
	C1.000000,307.312439 1.000000,279.624878 1.442077,251.468735 
	C6.954381,250.396973 10.934616,252.245544 15.129450,255.241867 
	C23.889265,261.498871 32.922981,267.525909 42.415390,272.573090 
	C65.027336,284.596008 89.055107,292.557556 114.662598,295.136719 
	C134.479797,297.132690 154.209961,296.936737 173.186386,289.983582 
	C185.323318,285.536499 194.648712,277.850525 196.837906,264.198944 
	C198.642700,252.944290 191.664108,241.648285 179.597092,235.284256 
	C162.701157,226.373505 143.930664,224.016647 125.650917,220.099152 
	C98.637833,214.310043 71.696602,208.209229 47.794140,193.686813 
	C39.132664,188.424362 30.993740,181.775742 23.967789,174.461472 
	C10.999795,160.961334 4.904722,144.009888 2.841373,125.529617 
	C2.740830,124.629105 1.636761,123.840645 0.999998,123.000000 
	C1.000000,115.312424 1.000000,107.624847 1.372438,99.371353 
	C2.127932,98.109642 2.767971,97.445145 2.857074,96.713547 
	C6.732283,64.895294 25.355375,43.208996 51.379528,26.939592 
	C71.048912,14.642971 92.550842,7.017551 115.591347,3.787712 
	C118.467972,3.384464 121.200630,1.954324 124.000000,0.999999 
	C145.354233,1.000000 166.708450,1.000000 188.531342,0.999998 
z"/>
<path fill="#173556" opacity="1.000000" stroke="none" 
	d="
M901.000000,354.531342 
	C821.854065,355.010040 742.708191,355.024048 663.562256,355.022888 
	C657.049316,355.022797 657.007751,354.974945 657.007263,348.234863 
	C656.998474,236.763977 656.998596,125.293083 657.006714,13.822191 
	C657.007263,7.061555 657.046326,7.016197 663.531555,7.011590 
	C690.191284,6.992649 716.850952,6.992831 743.510681,7.011559 
	C749.988281,7.016109 750.024719,7.060874 750.025391,13.797795 
	C750.034485,102.274689 750.031738,190.751587 750.034180,279.228485 
	C750.034363,287.990112 750.040710,287.998230 758.599670,287.998718 
	C805.754028,288.001556 852.908325,288.000153 900.531372,288.000092 
	C901.000000,310.020905 901.000000,332.041779 901.000000,354.531342 
z"/>
<path fill="#173556" opacity="1.000000" stroke="none" 
	d="
M306.998505,148.000000 
	C306.999146,103.003807 306.994629,58.507607 307.005768,14.011413 
	C307.007507,7.048391 307.040405,7.011507 313.848511,7.009535 
	C354.678345,6.997715 395.521118,6.384748 436.333221,7.235992 
	C460.982971,7.750128 485.773224,9.051028 509.907898,15.027652 
	C534.958313,21.231035 557.449463,32.606304 577.060486,49.518963 
	C608.792480,76.884750 626.814575,111.450706 632.136047,152.953049 
	C636.377686,186.034286 633.849304,218.256500 621.007141,249.255035 
	C614.168213,265.762909 604.710266,280.688660 593.211426,294.474396 
	C579.778625,310.578735 563.565369,323.022675 545.248535,332.762634 
	C529.910400,340.918640 513.438904,346.129944 496.279144,348.957184 
	C471.795166,352.991180 447.134460,354.267883 422.327301,354.072540 
	C386.332611,353.789062 350.334015,354.003906 314.337097,353.994568 
	C307.025543,353.992676 307.003662,353.968842 307.002960,346.483093 
	C306.996704,280.488739 306.998840,214.494370 306.998505,148.000000 
M450.187286,287.954102 
	C453.813507,287.560791 457.490173,287.427155 461.058167,286.734161 
	C498.083893,279.542633 522.463562,257.675293 533.327942,221.848404 
	C541.123901,196.140381 540.957642,169.853119 534.411560,143.637955 
	C528.918884,121.641380 517.376709,103.865364 498.960175,90.599213 
	C481.121704,77.749496 460.716248,73.510971 439.261353,73.042099 
	C428.936188,72.816452 418.602020,72.997849 408.271912,73.003578 
	C400.014740,73.008163 400.001068,73.013985 400.000610,81.082436 
	C399.996857,147.728226 399.998413,214.374008 399.999084,281.019806 
	C399.999084,282.019470 400.089386,283.026581 399.998413,284.017456 
	C399.667969,287.617676 401.145630,289.312683 404.869537,289.000275 
	C409.657806,288.598572 414.453094,288.104523 419.251129,288.032318 
	C429.245728,287.881836 439.244110,287.982513 450.187286,287.954102 
z"/>
</svg>
